<svg width="827" height="228" viewBox="0 0 827 228" fill="none" xmlns="http://www.w3.org/2000/svg">
<path d="M362.594 68.3061C358.155 68.3061 353.849 67.7179 349.68 66.5417C345.561 65.312 342.248 63.7349 339.732 61.8104L344.146 52.0269C346.551 53.791 349.412 55.2077 352.728 56.277C356.044 57.3463 359.357 57.881 362.673 57.881C366.364 57.881 369.09 57.3463 370.857 56.277C372.621 55.1543 373.503 53.684 373.503 51.8665C373.503 50.5298 372.967 49.4339 371.899 48.5784C370.883 47.6697 369.546 46.9479 367.887 46.4131C366.283 45.8786 364.091 45.2905 361.311 44.649C357.031 43.6334 353.529 42.6175 350.804 41.6016C348.076 40.5859 345.724 38.9552 343.744 36.7099C341.82 34.4644 340.856 31.4706 340.856 27.7283C340.856 24.467 341.738 21.5266 343.503 18.907C345.267 16.2339 347.916 14.1221 351.444 12.5717C355.028 11.0213 359.386 10.2461 364.519 10.2461C368.102 10.2461 371.605 10.6738 375.026 11.5292C378.449 12.3846 381.442 13.6142 384.01 15.2181L379.998 25.0818C374.813 22.1414 369.625 20.6712 364.437 20.6712C360.801 20.6712 358.102 21.2593 356.338 22.4355C354.626 23.6116 353.77 25.162 353.77 27.0868C353.77 29.0113 354.76 30.4547 356.737 31.4172C358.769 32.3258 361.846 33.2347 365.963 34.1436C370.24 35.1595 373.742 36.1752 376.47 37.1911C379.197 38.2067 381.523 39.8107 383.448 42.0026C385.427 44.1945 386.417 47.1617 386.417 50.904C386.417 54.1118 385.506 57.0522 383.689 59.7252C381.925 62.3449 379.25 64.4301 375.669 65.9805C372.085 67.5309 367.727 68.3061 362.594 68.3061Z" fill="black"/>
<path d="M437.887 24.1997V67.3438H426.015V62.2112C424.359 64.0826 422.379 65.526 420.079 66.5416C417.779 67.5042 415.293 67.9853 412.621 67.9853C406.952 67.9853 402.46 66.3546 399.144 63.0934C395.828 59.8322 394.172 54.994 394.172 48.5783V24.1997H406.685V46.7341C406.685 53.684 409.599 57.1592 415.427 57.1592C418.423 57.1592 420.828 56.1969 422.647 54.2721C424.464 52.294 425.375 49.3805 425.375 45.5312V24.1997H437.887Z" fill="black"/>
<path d="M477.313 65.2586C476.082 66.1675 474.559 66.8627 472.739 67.3438C470.975 67.7713 469.103 67.9853 467.126 67.9853C461.991 67.9853 458.008 66.6754 455.173 64.0557C452.393 61.436 451.004 57.587 451.004 52.508V34.7852H444.346V25.162H451.004V14.6567H463.516V25.162H474.265V34.7852H463.516V52.3476C463.516 54.1651 463.971 55.5821 464.879 56.5978C465.842 57.56 467.179 58.0414 468.891 58.0414C470.868 58.0414 472.553 57.5066 473.944 56.4374L477.313 65.2586Z" fill="black"/>
<path d="M511.231 65.2586C509.999 66.1675 508.477 66.8627 506.657 67.3438C504.893 67.7713 503.021 67.9853 501.044 67.9853C495.909 67.9853 491.926 66.6754 489.091 64.0557C486.311 61.436 484.922 57.587 484.922 52.508V34.7852H478.264V25.162H484.922V14.6567H497.434V25.162H508.183V34.7852H497.434V52.3476C497.434 54.1651 497.889 55.5821 498.797 56.5978C499.76 57.56 501.097 58.0414 502.809 58.0414C504.785 58.0414 506.471 57.5066 507.86 56.4374L511.231 65.2586Z" fill="black"/>
<path d="M537.456 67.9852C532.912 67.9852 528.821 67.0497 525.185 65.1785C521.602 63.2537 518.795 60.6074 516.763 57.2392C514.731 53.8713 513.715 50.0486 513.715 45.7716C513.715 41.4947 514.731 37.6721 516.763 34.3039C518.795 30.936 521.602 28.3163 525.185 26.4449C528.821 24.5204 532.912 23.5581 537.456 23.5581C542.003 23.5581 546.065 24.5204 549.649 26.4449C553.232 28.3163 556.039 30.936 558.071 34.3039C560.103 37.6721 561.119 41.4947 561.119 45.7716C561.119 50.0486 560.103 53.8713 558.071 57.2392C556.039 60.6074 553.232 63.2537 549.649 65.1785C546.065 67.0497 542.003 67.9852 537.456 67.9852ZM537.456 57.7203C540.665 57.7203 543.285 56.6513 545.317 54.5128C547.404 52.3209 548.446 49.4071 548.446 45.7716C548.446 42.1362 547.404 39.2492 545.317 37.1107C543.285 34.9187 540.665 33.8228 537.456 33.8228C534.248 33.8228 531.602 34.9187 529.517 37.1107C527.43 39.2492 526.388 42.1362 526.388 45.7716C526.388 49.4071 527.43 52.3209 529.517 54.5128C531.602 56.6513 534.248 57.7203 537.456 57.7203Z" fill="black"/>
<path d="M595.71 23.5581C601.058 23.5581 605.364 25.162 608.624 28.3697C611.94 31.5775 613.597 36.3355 613.597 42.6441V67.3437H601.084V44.5688C601.084 41.147 600.336 38.6077 598.84 36.9503C597.343 35.2395 595.177 34.3842 592.342 34.3842C589.186 34.3842 586.674 35.3732 584.802 37.3514C582.93 39.2759 581.995 42.1629 581.995 46.0122V67.3437H569.482V24.1996H581.433V29.2519C583.09 27.4341 585.151 26.0441 587.611 25.0818C590.071 24.066 592.77 23.5581 595.71 23.5581Z" fill="black"/>
<path d="M339.732 92.1099H352.579V146.239H339.732V92.1099Z" fill="black"/>
<path d="M390.805 104.018C396.093 104.018 400.346 105.565 403.573 108.658C406.849 111.751 408.487 116.339 408.487 122.422V146.239H396.119V124.278C396.119 120.979 395.379 118.53 393.898 116.932C392.417 115.282 390.278 114.457 387.476 114.457C384.357 114.457 381.871 115.411 380.023 117.318C378.172 119.174 377.248 121.958 377.248 125.67V146.239H364.877V104.637H376.691V109.508C378.329 107.756 380.367 106.415 382.798 105.487C385.229 104.508 387.899 104.018 390.805 104.018Z" fill="black"/>
<path d="M433.262 105.565H444.202V114.844H433.577V146.239H421.209V114.844H414.627V105.565H421.209V103.709C421.209 98.9659 422.634 95.2026 425.491 92.4189C428.397 89.6353 432.467 88.2432 437.702 88.2432C439.552 88.2432 441.296 88.4494 442.934 88.8619C444.625 89.2228 446.027 89.764 447.137 90.4859L443.887 99.2237C442.459 98.2443 440.794 97.7547 438.891 97.7547C435.137 97.7547 433.262 99.7649 433.262 103.786V105.565Z" fill="black"/>
<path d="M470.121 146.857C465.627 146.857 461.584 145.955 457.989 144.151C454.448 142.295 451.673 139.743 449.664 136.496C447.656 133.248 446.65 129.562 446.65 125.438C446.65 121.314 447.656 117.628 449.664 114.38C451.673 111.132 454.448 108.606 457.989 106.802C461.584 104.946 465.627 104.018 470.121 104.018C474.614 104.018 478.633 104.946 482.175 106.802C485.716 108.606 488.491 111.132 490.5 114.38C492.508 117.628 493.511 121.314 493.511 125.438C493.511 129.562 492.508 133.248 490.5 136.496C488.491 139.743 485.716 142.295 482.175 144.151C478.633 145.955 474.614 146.857 470.121 146.857ZM470.121 136.96C473.293 136.96 475.884 135.928 477.893 133.867C479.954 131.753 480.985 128.943 480.985 125.438C480.985 121.932 479.954 119.148 477.893 117.087C475.884 114.973 473.293 113.916 470.121 113.916C466.95 113.916 464.332 114.973 462.271 117.087C460.211 119.148 459.179 121.932 459.179 125.438C459.179 128.943 460.211 131.753 462.271 133.867C464.332 135.928 466.95 136.96 470.121 136.96Z" fill="black"/>
<path d="M513.596 110.127C515.076 108.117 517.058 106.596 519.542 105.565C522.078 104.534 524.987 104.018 528.264 104.018V115.153C526.891 115.05 525.964 114.999 525.489 114.999C521.947 114.999 519.172 115.978 517.163 117.937C515.155 119.844 514.149 122.731 514.149 126.598V146.239H501.781V104.637H513.596V110.127Z" fill="black"/>
<path d="M590.253 104.018C595.59 104.018 599.82 105.565 602.939 108.658C606.11 111.699 607.696 116.287 607.696 122.422V146.239H595.328V124.278C595.328 120.979 594.614 118.53 593.186 116.932C591.812 115.282 589.83 114.457 587.239 114.457C584.333 114.457 582.033 115.385 580.342 117.241C578.649 119.045 577.803 121.752 577.803 125.36V146.239H565.435V124.278C565.435 117.731 562.739 114.457 557.346 114.457C554.492 114.457 552.219 115.385 550.528 117.241C548.835 119.045 547.989 121.752 547.989 125.36V146.239H535.621V104.637H547.435V109.431C549.021 107.678 550.951 106.338 553.224 105.41C555.548 104.482 558.087 104.018 560.835 104.018C563.849 104.018 566.572 104.611 569.003 105.797C571.434 106.931 573.39 108.606 574.871 110.823C576.614 108.658 578.809 106.982 581.45 105.797C584.146 104.611 587.082 104.018 590.253 104.018Z" fill="black"/>
<path d="M635.99 104.018C642.598 104.018 647.673 105.565 651.214 108.658C654.756 111.699 656.528 116.313 656.528 122.499V146.239H644.95V141.058C642.624 144.924 638.29 146.857 631.947 146.857C628.67 146.857 625.814 146.316 623.383 145.234C621.004 144.151 619.179 142.656 617.911 140.749C616.643 138.841 616.008 136.676 616.008 134.253C616.008 130.387 617.489 127.345 620.45 125.129C623.461 122.912 628.087 121.803 634.325 121.803H644.157C644.157 119.174 643.338 117.164 641.7 115.772C640.062 114.329 637.602 113.607 634.325 113.607C632.052 113.607 629.804 113.968 627.586 114.689C625.417 115.36 623.569 116.287 622.036 117.473L617.594 109.044C619.92 107.446 622.695 106.209 625.921 105.333C629.198 104.456 632.553 104.018 635.99 104.018ZM635.039 138.738C637.153 138.738 639.03 138.274 640.668 137.346C642.306 136.367 643.469 134.949 644.157 133.093V128.84H635.672C630.597 128.84 628.061 130.464 628.061 133.712C628.061 135.258 628.67 136.496 629.886 137.423C631.154 138.3 632.871 138.738 635.039 138.738Z" fill="black"/>
<path d="M695.238 144.229C694.022 145.105 692.515 145.775 690.717 146.239C688.973 146.651 687.122 146.858 685.167 146.858C680.092 146.858 676.154 145.595 673.352 143.069C670.603 140.543 669.228 136.831 669.228 131.933V114.844H662.648V105.565H669.228V95.4351H681.599V105.565H692.224V114.844H681.599V131.779C681.599 133.532 682.048 134.898 682.945 135.877C683.898 136.805 685.219 137.269 686.912 137.269C688.868 137.269 690.533 136.754 691.906 135.722L695.238 144.229Z" fill="black"/>
<path d="M702.182 104.637H714.55V146.239H702.182V104.637Z" fill="black"/>
<path d="M746.328 146.857C741.836 146.857 737.793 145.955 734.198 144.151C730.654 142.295 727.879 139.743 725.871 136.496C723.862 133.248 722.859 129.562 722.859 125.438C722.859 121.314 723.862 117.628 725.871 114.38C727.879 111.132 730.654 108.606 734.198 106.802C737.793 104.946 741.836 104.018 746.328 104.018C750.822 104.018 754.839 104.946 758.381 106.802C761.923 108.606 764.698 111.132 766.706 114.38C768.715 117.628 769.72 121.314 769.72 125.438C769.72 129.562 768.715 133.248 766.706 136.496C764.698 139.743 761.923 142.295 758.381 144.151C754.839 145.955 750.822 146.857 746.328 146.857ZM746.328 136.96C749.499 136.96 752.091 135.928 754.099 133.867C756.16 131.753 757.192 128.943 757.192 125.438C757.192 121.932 756.16 119.148 754.099 117.087C752.091 114.973 749.499 113.916 746.328 113.916C743.156 113.916 740.541 114.973 738.478 117.087C736.417 119.148 735.388 121.932 735.388 125.438C735.388 128.943 736.417 131.753 738.478 133.867C740.541 135.928 743.156 136.96 746.328 136.96Z" fill="black"/>
<path d="M803.915 104.018C809.202 104.018 813.458 105.565 816.682 108.658C819.959 111.751 821.597 116.339 821.597 122.422V146.239H809.229V124.278C809.229 120.979 808.488 118.53 807.008 116.932C805.527 115.282 803.387 114.457 800.586 114.457C797.467 114.457 794.983 115.411 793.132 117.318C791.281 119.174 790.357 121.958 790.357 125.67V146.239H777.986V104.637H789.801V109.508C791.441 107.756 793.476 106.415 795.907 105.487C798.338 104.508 801.008 104.018 803.915 104.018Z" fill="black"/>
<path d="M702.814 96.9041C704.242 98.1928 706.093 98.8372 708.364 98.8372C710.637 98.8372 712.488 98.1928 713.916 96.9041C715.342 95.5638 716.056 93.8883 716.056 91.8777C716.056 90.0219 715.342 88.4753 713.916 87.2382C712.488 86.001 710.637 85.3823 708.364 85.3823C706.093 85.3823 704.242 86.0267 702.814 87.3154C701.388 88.6044 700.674 90.2025 700.674 92.1099C700.674 94.0173 701.388 95.6154 702.814 96.9041Z" fill="#40A360"/>
<path d="M390.287 170.6V224.789H377.53V202.572H352.489V224.789H339.732V170.6H352.489V191.966H377.53V170.6H390.287Z" fill="black"/>
<path d="M445.141 183.141V224.789H433.487V219.835C431.859 221.641 429.917 223.035 427.659 224.015C425.404 224.944 422.962 225.409 420.337 225.409C414.771 225.409 410.363 223.835 407.107 220.686C403.852 217.538 402.227 212.868 402.227 206.675V183.141H414.508V204.894C414.508 211.603 417.37 214.958 423.093 214.958C426.031 214.958 428.394 214.029 430.179 212.171C431.964 210.261 432.857 207.449 432.857 203.733V183.141H445.141Z" fill="black"/>
<path d="M481.56 182.522C485.498 182.522 489.069 183.425 492.272 185.231C495.524 186.986 498.071 189.489 499.909 192.74C501.747 195.94 502.665 199.682 502.665 203.965C502.665 208.249 501.747 212.016 499.909 215.268C498.071 218.467 495.524 220.97 492.272 222.776C489.069 224.531 485.498 225.409 481.56 225.409C475.734 225.409 471.297 223.602 468.254 219.99V224.789H456.521V167.349H468.806V187.554C471.901 184.199 476.154 182.522 481.56 182.522ZM479.436 215.5C482.584 215.5 485.157 214.467 487.152 212.403C489.2 210.287 490.224 207.475 490.224 203.965C490.224 200.456 489.2 197.669 487.152 195.605C485.157 193.489 482.584 192.43 479.436 192.43C476.286 192.43 473.686 193.489 471.639 195.605C469.643 197.669 468.648 200.456 468.648 203.965C468.648 207.475 469.643 210.287 471.639 212.403C473.686 214.467 476.286 215.5 479.436 215.5Z" fill="black"/>
<path d="M256.655 198.5C256.283 202.582 256.725 212.586 256.542 216.692C256.466 218.416 256.162 221.831 258.108 222.354C259.617 222.758 260.185 220.817 260.463 219.393C261.246 215.38 263.248 197.617 263.5 193.473C263.545 192.696 256.731 197.704 256.655 198.5Z" fill="#D95F5F"/>
<path d="M262.241 220.22C261.959 220.103 261.716 219.91 261.542 219.662C261.367 219.414 261.268 219.122 261.256 218.821C261.218 218.572 261.351 217.613 261.18 217.458C261.01 217.302 261.092 217.346 260.764 217.29C259.646 217.103 257.751 216.991 257.038 216.954C256.722 216.954 256.659 216.954 256.545 217.576C256.545 217.613 256.293 219.86 256.217 221.048C256.128 222.454 256.299 222.864 257.543 223.207C260.549 224.047 264.11 224.706 267.229 225.372C267.3 225.385 267.374 225.385 267.442 225.37C267.513 225.356 267.578 225.328 267.636 225.288C267.697 225.248 267.746 225.197 267.786 225.137C267.823 225.078 267.849 225.012 267.862 224.942C268.411 222.995 268.266 223.113 266.662 222.348C265.72 221.937 263.023 220.575 262.241 220.22Z" fill="#1C1C1C"/>
<path d="M226.989 194.307C224.741 197.754 220.453 206.831 218.363 210.396C217.485 211.889 215.623 214.751 217.1 216.126C218.25 217.172 219.664 215.709 220.573 214.571C223.156 211.367 233.254 196.528 235.413 192.957C235.817 192.291 227.425 193.635 226.989 194.307Z" fill="#D95F5F"/>
<path d="M221.771 216.114C221.575 215.881 221.45 215.599 221.411 215.299C221.372 215 221.42 214.695 221.55 214.421C221.632 214.185 222.181 213.395 222.118 213.177C222.055 212.959 222.118 213.034 221.828 212.835C220.931 212.157 219.302 211.199 218.67 210.844C218.399 210.682 218.323 210.688 217.931 211.192C217.931 211.23 216.669 213.102 216.037 214.129C215.298 215.336 215.26 215.772 216.201 216.618C218.474 218.727 221.329 220.936 223.779 222.945C223.892 223.023 224.032 223.055 224.168 223.034C224.304 223.013 224.428 222.941 224.512 222.833C225.913 221.359 225.724 221.396 224.663 219.984C224.051 219.218 222.301 216.786 221.771 216.114Z" fill="#1C1C1C"/>
<path d="M221.375 201.063C224.883 192.014 226.772 182.434 226.957 172.749C227.121 165.283 227.367 142.512 229.824 135.419C230.935 132.215 232.621 140.471 236.139 139.426C238.766 138.648 242.043 140.191 244.979 142.113C248.768 141.037 253.959 142.002 257.047 142.468C257.849 141.846 259.087 141.983 259.302 143.321C262.768 164.816 270.587 185.889 265.788 207.914C265.722 208.252 265.541 208.559 265.276 208.785C265.01 209.01 264.677 209.142 264.328 209.158C261.354 208.759 258.424 208.268 255.487 207.652C255.155 207.531 254.87 207.31 254.67 207.021C254.471 206.733 254.368 206.39 254.376 206.041C253.791 196.393 251.507 186.919 247.625 178.043C246.962 176.525 246.287 175.051 245.63 173.576C242.593 186.156 238.753 198.326 230.79 208.536C230.584 208.798 230.288 208.978 229.957 209.043C229.627 209.108 229.284 209.054 228.99 208.89C226.502 207.024 224.103 205.114 221.735 203.079C221.482 202.814 221.313 202.482 221.249 202.124C221.185 201.766 221.229 201.397 221.375 201.063Z" fill="#40A360"/>
<path d="M246.42 92.6021C246.382 92.3472 246.35 92.0982 246.3 91.8495C246.277 91.7228 246.208 91.6093 246.104 91.5321C246.093 91.4254 246.054 91.3233 245.991 91.2357C245.928 91.1481 245.843 91.0782 245.745 91.0326C245.646 90.9867 245.537 90.967 245.429 90.9748C245.32 90.9828 245.215 91.0183 245.125 91.0779C245.163 90.5989 245.182 90.1198 245.226 89.6407C245.219 89.4858 245.156 89.3384 245.05 89.2244C244.943 89.1104 244.8 89.0368 244.644 89.0168C244.488 88.9966 244.33 89.0314 244.197 89.1148C244.065 89.1982 243.966 89.3249 243.919 89.4726C243.919 89.5288 243.919 89.5848 243.919 89.6407C243.919 89.6407 243.919 89.6905 243.919 89.7154C243.842 89.6208 243.741 89.5482 243.626 89.5058C243.51 89.4633 243.386 89.4524 243.265 89.4741C243.144 89.4959 243.031 89.5493 242.938 89.6291C242.845 89.7086 242.776 89.8117 242.738 89.9268C242.738 89.8211 242.738 89.7154 242.738 89.6097C242.722 89.4464 242.645 89.2951 242.522 89.1853C242.398 89.0751 242.238 89.014 242.072 89.014C241.905 89.014 241.745 89.0751 241.622 89.1853C241.499 89.2951 241.422 89.4464 241.406 89.6097V89.7278C241.233 89.7301 241.068 89.7946 240.941 89.9094C240.814 90.0242 240.734 90.1809 240.717 90.3499C240.717 90.5305 240.717 90.7108 240.679 90.8914C240.524 90.895 240.376 90.9546 240.263 91.0593C240.164 90.982 240.045 90.9328 239.92 90.917C239.795 90.901 239.668 90.9188 239.552 90.9688C239.437 91.0186 239.337 91.0986 239.264 91.2C239.192 91.3015 239.148 91.4207 239.138 91.5445C239 94.1326 238.863 96.723 238.728 99.3152C238.665 100.56 238.034 102.737 238.671 103.869C238.828 104.064 239.026 104.222 239.25 104.335C239.474 104.448 239.72 104.512 239.972 104.523C239.972 104.747 239.972 104.971 239.972 105.189C239.972 105.362 240.042 105.528 240.166 105.65C240.29 105.773 240.459 105.842 240.635 105.842C240.811 105.842 240.98 105.773 241.104 105.65C241.228 105.528 241.298 105.362 241.298 105.189V104.821H241.336C241.336 105.201 241.336 105.587 241.336 105.966C241.33 106.076 241.354 106.185 241.404 106.282C241.455 106.38 241.532 106.463 241.625 106.522C241.719 106.582 241.826 106.616 241.938 106.621C242.049 106.626 242.159 106.602 242.258 106.551C242.36 106.691 242.513 106.787 242.685 106.818C242.857 106.85 243.034 106.814 243.18 106.719C243.241 106.803 243.322 106.871 243.416 106.917C243.509 106.964 243.612 106.989 243.717 106.989C243.821 106.989 243.925 106.964 244.018 106.917C244.111 106.871 244.192 106.803 244.254 106.719C244.319 106.846 244.423 106.949 244.552 107.012C244.681 107.076 244.828 107.096 244.97 107.071C245.112 107.046 245.242 106.976 245.34 106.873C245.439 106.769 245.501 106.636 245.517 106.495C245.517 106.364 245.517 106.234 245.517 106.103C245.642 106.164 245.784 106.185 245.922 106.163C246.06 106.141 246.188 106.076 246.287 105.979L247.177 106.172C247.556 106.259 248.061 105.979 248.011 105.549C247.542 101.268 247.444 96.9556 247.72 92.6581C247.783 91.8492 246.546 91.8371 246.42 92.6021Z" fill="#D95F5F"/>
<path d="M204.889 115.473C205.291 115.828 205.753 116.112 206.253 116.313C206.979 116.692 207.453 116.774 208.008 117.557C208.305 117.962 208.52 118.447 208.791 118.87C210.364 121.328 211.892 124.003 215.005 122.155C215.098 122.098 215.177 122.021 215.237 121.93C215.296 121.839 215.334 121.736 215.348 121.629C215.362 121.522 215.351 121.413 215.317 121.31C215.283 121.208 215.226 121.114 215.15 121.035C215.269 120.949 215.347 120.819 215.368 120.676C215.389 120.532 215.352 120.386 215.264 120.27C214.702 119.405 214.14 118.528 213.502 117.707C213.039 117.162 212.617 116.583 212.239 115.977C211.684 114.982 211.766 114.191 211.608 113.109C211.581 112.545 211.44 111.993 211.194 111.483C210.948 110.973 210.601 110.517 210.174 110.141C209.29 109.401 207.882 108.866 206.802 109.457C205.688 110.202 204.803 111.236 204.245 112.443C204.05 112.956 204.007 113.514 204.121 114.05C204.235 114.587 204.501 115.08 204.889 115.473Z" fill="#D95F5F"/>
<path d="M273.295 162.346C273.027 161.887 272.678 161.479 272.266 161.139C271.696 160.548 271.273 160.33 271.003 159.422C270.856 158.949 270.801 158.427 270.68 157.941C269.961 155.117 269.354 152.105 265.813 152.908C265.705 152.934 265.605 152.982 265.521 153.051C265.435 153.119 265.366 153.205 265.319 153.303C265.272 153.4 265.248 153.507 265.248 153.615C265.248 153.724 265.272 153.831 265.319 153.928C265.18 153.975 265.067 154.074 265.001 154.203C264.936 154.333 264.925 154.482 264.973 154.619C265.23 155.614 265.49 156.616 265.831 157.593C266.104 158.254 266.327 158.934 266.501 159.627C266.708 160.747 266.38 161.494 266.159 162.539C266.007 163.084 265.965 163.653 266.038 164.214C266.112 164.775 266.296 165.316 266.582 165.805C267.215 166.776 268.357 167.715 269.57 167.492C270.864 167.119 272.032 166.407 272.948 165.432C273.298 165.003 273.516 164.485 273.576 163.939C273.636 163.393 273.539 162.84 273.295 162.346Z" fill="#D95F5F"/>
<path d="M241.801 74.8022C242.357 74.5128 242.944 74.2832 243.55 74.1177C243.797 74.5327 244.094 74.917 244.434 75.2626C245.556 76.3381 247.055 76.9482 248.621 76.9672H249.732C250.243 76.9625 250.751 76.8894 251.242 76.7495C252.609 78.4258 253.483 80.4405 253.768 82.5729C253.843 83.1392 253.919 84.6324 253.969 85.2296C254.601 86.8098 255.233 87.544 255.675 89.1804C255.99 90.4246 254.759 90.6985 253.78 90.9783C253.572 92.3222 253.635 94.2819 253.098 95.458C251.955 97.9465 249.701 98.0087 246.581 98.152C239.698 98.4691 236.768 94.8234 235.89 89.7652C234.059 84.315 235.884 77.9066 241.801 74.8022Z" fill="#D95F5F"/>
<path d="M207.865 122.323C211.054 129.614 217.445 135.388 225.724 134.399C225.856 139.451 225.66 144.522 226.355 149.53C226.646 151.577 226.608 151.763 228.515 152.392C230.087 152.908 231.836 152.921 233.415 153.107C240.317 153.941 247.263 153.462 254.178 153.107C256.803 152.914 259.414 152.562 261.996 152.056C262.387 153.462 262.803 154.868 263.26 156.268C263.325 156.477 263.47 156.654 263.661 156.763C263.856 156.871 264.084 156.904 264.299 156.853C266.486 156.461 269.884 156.735 271.007 154.687C271.637 153.512 270.634 152.51 271.044 151.222C271.425 150.059 272.819 148.292 272.737 147.029C272.307 140.577 268.994 134.137 266.032 128.202C263.139 120.917 259.672 112.337 253.843 106.613C253.086 103.956 251.671 100.391 249.113 99.7693C247.162 99.2965 244.567 100.186 242.47 101.387L242.009 101.337C240.803 100.217 239.534 99.1597 238.22 98.1331C237.059 97.2248 235.827 96.0052 234.261 95.9119C231.28 95.7316 228.742 99.2467 227.233 101.325C225.622 103.546 223.627 106.613 226.298 108.828C226.99 109.358 227.75 109.796 228.559 110.128C228.079 111.078 227.61 112.034 227.151 112.996C226.39 114.756 225.488 116.454 224.454 118.073C223.16 120.431 220.943 121.296 217.824 120.686C216.567 119.701 215.519 118.484 214.736 117.103C214.623 116.913 214.437 116.774 214.221 116.718C214.004 116.662 213.774 116.693 213.58 116.804C211.619 118.198 209.74 119.702 207.954 121.309C207.833 121.447 207.759 121.619 207.744 121.802C207.728 121.983 207.77 122.166 207.865 122.323Z" fill="#F9B34A"/>
<path d="M230.157 87.488C231.26 88.5293 232.22 89.7089 233.011 90.9971C234.407 93.2618 235.493 94.4189 238.151 95.2527C238.263 95.3726 238.404 95.4617 238.561 95.511C238.719 95.5599 238.887 95.5675 239.048 95.5325C240.235 95.2589 241.252 94.0145 241.77 92.9631C243.033 90.3312 241.599 88.9065 243.797 86.2811C244.536 85.3914 244.971 85.4163 245.142 84.1221C245.375 82.3986 244.176 81.8201 246.405 80.1342C247.762 79.1074 249.878 79.0701 251.457 79.1074C251.578 79.1121 251.7 79.0872 251.81 79.0351C251.92 78.983 252.015 78.9053 252.088 78.8089C253.465 78.647 254.469 77.664 253.982 76.0838C253.686 75.1319 253.099 74.8394 252.309 74.323C250.97 73.3737 249.576 72.5011 248.135 71.7101C246.952 71.1614 245.61 71.0424 244.346 71.3741C242.528 71.8158 241.82 72.6185 239.926 72.5809C237.23 72.5249 235.354 73.0851 234.192 75.5239C233.434 77.1228 234.192 76.3763 232.626 77.4588C231.613 78.1141 230.712 78.9224 229.955 79.8541C228.231 82.2432 227.972 85.2857 230.157 87.488Z" fill="#1C1C1C"/>
<path d="M209.863 108.704C210.583 109.308 210.88 110.266 211.215 111.118C211.802 112.624 213.336 115.081 211.644 116.394C210.589 117.228 207.375 117.894 206.251 117.06C205.537 116.525 204.934 115.594 204.72 114.412C204.548 113.467 204.75 112.911 204.568 112.251C204.449 111.118 204.568 110.53 204.72 109.29C204.677 109.162 204.626 109.037 204.568 108.916C203.756 107.639 203.786 105.44 202.986 104.167L207.659 106.483C207.855 106.919 208.082 107.317 208.291 107.727C208.802 108.082 209.358 108.3 209.863 108.704Z" fill="#D95F5F"/>
<path d="M204.72 95.6276C204.72 95.6276 208.186 105.873 208.186 107.581C208.186 107.581 205.223 109.435 204.72 109.289C204.216 109.143 201.427 104.914 201.427 104.914C198.724 101.306 190.635 87.1953 189.643 82.05C187.819 72.5932 187.522 60.8032 192.959 52.3978C193.022 52.3012 193.103 52.2177 193.199 52.1524C193.295 52.0869 193.402 52.0405 193.516 52.0164C193.63 51.9921 193.748 51.9903 193.862 52.0107C193.977 52.0315 194.086 52.0742 194.184 52.1366C193.264 49.1848 191.992 46.3509 190.395 43.6939C189.833 42.7855 191.254 41.8647 191.816 42.7855C197.499 52.1429 197.733 67.871 199.394 78.3981C201.253 85.3816 204.72 95.6276 204.72 95.6276Z" fill="black"/>
<path d="M172.919 183.426C172.629 188.919 175.211 208.76 175.186 214.285C175.186 216.593 174.946 221.191 177.586 221.788C179.632 222.255 180.289 219.617 180.585 217.694C181.425 212.269 182.341 189.815 182.48 184.266C182.474 183.189 172.97 182.362 172.919 183.426Z" fill="black"/>
<path d="M183.012 218.714C182.627 218.572 182.29 218.324 182.042 218C181.794 217.676 181.644 217.29 181.611 216.885C181.547 216.556 181.674 215.268 181.434 215.069C181.194 214.869 181.314 214.919 180.865 214.857C179.362 214.664 176.811 214.614 175.851 214.602C175.428 214.602 175.34 214.652 175.22 215.498C175.22 215.548 175.005 218.571 174.967 220.17C174.923 222.037 175.176 222.603 176.862 223.001C180.935 223.966 185.753 224.669 189.971 225.397C190.158 225.414 190.344 225.358 190.489 225.242C190.634 225.126 190.727 224.958 190.748 224.774C191.38 222.136 191.19 222.286 189.005 221.359C187.768 220.836 184.08 219.15 183.012 218.714Z" fill="#40A360"/>
<path d="M140.494 180.328C138.929 185.607 136.199 204.552 134.88 209.917C134.327 212.169 133.037 216.586 135.461 217.772C137.342 218.689 138.238 216.103 139.332 214.473C141.974 210.491 151.801 185.493 150.98 175.599C150.89 174.551 140.796 179.302 140.494 180.328Z" fill="black"/>
<path d="M141.461 216.012C141.12 215.786 140.851 215.468 140.685 215.097C140.52 214.725 140.465 214.315 140.527 213.914C140.547 213.582 140.969 212.355 140.784 212.106C140.599 211.857 140.725 211.922 140.28 211.773C138.859 211.242 136.396 210.616 135.461 210.384C135.052 210.282 134.955 210.312 134.641 211.114C134.657 211.161 133.72 214.054 133.302 215.605C132.821 217.437 132.938 218.013 134.483 218.787C138.221 220.648 142.742 222.431 146.678 224.101C146.853 224.159 147.045 224.148 147.212 224.07C147.38 223.993 147.511 223.855 147.578 223.685C148.792 221.267 148.588 221.376 146.679 219.958C145.595 219.153 142.402 216.679 141.461 216.012Z" fill="#40A360"/>
<path d="M190.313 21.7759C189.802 19.6792 188.703 17.7256 187.926 15.6912C187.876 14.9321 187.813 14.1793 187.731 13.4576C186.954 6.65735 181.416 -0.733902 173.207 3.40348C165.629 7.25466 163.147 15.3925 165.389 22.3732C166.399 28.8437 170.068 33.5722 178.858 33.2734C182.837 33.1553 185.71 33.1553 187.219 29.9635C187.926 28.4766 187.882 25.9754 188.173 24.2645C189.461 23.9161 190.692 23.3313 190.313 21.7759Z" fill="#D95F5F"/>
<path d="M178.638 26.1368C178.638 25.8133 178.6 25.5147 178.569 25.1663C178.55 25.0065 178.474 24.8586 178.354 24.7494C178.354 24.6112 178.317 24.4754 178.246 24.3557C178.176 24.236 178.075 24.1366 177.954 24.0673C177.832 23.998 177.695 23.9614 177.554 23.961C177.414 23.9606 177.276 23.9964 177.154 24.065C177.255 23.4429 177.331 22.8207 177.438 22.2546C177.453 22.0534 177.393 21.8538 177.27 21.6924C177.147 21.531 176.97 21.4186 176.77 21.3755C176.57 21.3325 176.361 21.3618 176.181 21.4581C176.001 21.5544 175.862 21.7112 175.79 21.8999C175.79 21.9684 175.79 22.043 175.746 22.1114V22.2048C175.659 22.0757 175.537 21.9724 175.395 21.9057C175.253 21.8391 175.095 21.8117 174.938 21.8264C174.782 21.841 174.632 21.8973 174.505 21.9891C174.378 22.0809 174.279 22.2049 174.218 22.3479C174.218 22.2172 174.218 22.0804 174.218 21.9435C174.218 21.7333 174.137 21.5309 173.993 21.3761C173.849 21.2214 173.651 21.1255 173.438 21.1076C173.226 21.0896 173.014 21.1508 172.845 21.279C172.676 21.4073 172.562 21.5933 172.525 21.8004C172.529 21.8501 172.529 21.9 172.525 21.9497C172.305 21.9324 172.085 21.9968 171.91 22.1302C171.735 22.2637 171.617 22.4566 171.578 22.6714C171.534 22.9016 171.515 23.1256 171.477 23.3558C171.279 23.3404 171.082 23.4006 170.928 23.5238C170.498 23.1069 168.831 21.9621 168.724 22.7398C168.269 26.0186 166.829 38.1322 167.524 39.6315C167.702 39.8956 167.934 40.1191 168.206 40.2878C168.479 40.4562 168.784 40.5656 169.103 40.6083C169.103 40.8884 169.052 41.1682 169.033 41.4483C169.033 41.6584 169.114 41.8608 169.258 42.0157C169.402 42.1704 169.6 42.2662 169.813 42.2841C170.025 42.302 170.237 42.2408 170.406 42.1126C170.575 41.9843 170.689 41.7983 170.726 41.5913C170.726 41.4358 170.764 41.2864 170.789 41.1309H170.833C170.833 41.6162 170.782 42.1015 170.732 42.5929C170.721 42.7292 170.745 42.8658 170.801 42.9904C170.857 43.1153 170.944 43.2244 171.054 43.3075C171.163 43.3909 171.293 43.4461 171.429 43.4679C171.566 43.4899 171.706 43.4777 171.837 43.4329C171.954 43.6195 172.139 43.755 172.354 43.8117C172.568 43.8682 172.797 43.8418 172.993 43.7379C173.064 43.849 173.161 43.942 173.276 44.0097C173.391 44.077 173.521 44.1169 173.654 44.126C173.787 44.1351 173.921 44.113 174.044 44.062C174.167 44.0107 174.276 43.9317 174.363 43.8311C174.423 44.0115 174.544 44.1664 174.705 44.2708C174.866 44.375 175.058 44.4224 175.25 44.405C175.443 44.3877 175.623 44.3066 175.762 44.1755C175.901 44.0441 175.992 43.87 176.018 43.6819C176.018 43.5138 176.049 43.3459 176.075 43.1839C176.227 43.2746 176.405 43.3153 176.583 43.3008C176.761 43.2863 176.93 43.2174 177.066 43.1031L178.171 43.4454C178.293 43.4876 178.423 43.5016 178.552 43.4868C178.681 43.4718 178.804 43.4283 178.913 43.3593C179.022 43.2902 179.114 43.1977 179.181 43.0886C179.248 42.9798 179.289 42.857 179.301 42.73C179.167 37.2401 179.511 31.749 180.331 26.3174C180.438 25.3218 178.878 25.16 178.638 26.1368Z" fill="#D95F5F"/>
<path d="M191.12 42.4059C189.481 41.0626 187.594 40.0441 185.563 39.4072C185.081 40.156 184.411 40.7695 183.617 41.189C182.824 41.6087 181.935 41.8199 181.035 41.8025C175.352 41.8958 169.707 42.5865 164.048 41.8025C162.293 41.5598 161.024 40.1785 160.38 38.561C154.273 39.6808 148.842 42.6052 147.851 49.2436C147.655 50.5626 150.68 52.6654 150.939 55.5398C151.861 65.6811 152.012 83.0519 152.423 88.5143C152.423 88.8441 150.421 89.5224 150.794 89.4537C156.761 88.3588 162.722 88.5765 168.734 89.1615C173.331 89.6032 178.686 90.9907 183.296 90.4492C184.338 90.331 184.559 90.2626 185.19 89.5159C186.668 87.7305 194.214 58.2836 194.492 53.3624C194.694 49.3804 194.492 45.1124 191.12 42.4059Z" fill="#40A360"/>
<path d="M168.807 80.2152C168.837 80.1164 168.847 80.0128 168.838 79.9102C168.541 76.8742 164.67 77.0172 162.29 76.4884C156.681 75.2165 151.158 73.6042 145.751 71.6605C147.773 65.4338 150.424 59.4229 153.664 53.7172C154.352 52.473 155.356 51.0047 156.316 49.4865C155.375 49.1939 154.518 48.6856 153.815 48.0032C153.113 47.3207 152.585 46.4836 152.274 45.5607C151.919 44.4464 151.707 43.2926 151.643 42.1265C142.246 48.9141 138.477 61.7371 135.824 72.3323C135.395 74.0309 134.416 77.6828 135.483 79.369C136.689 81.2914 140.611 81.0738 142.461 81.2355C150.917 81.9946 159.922 81.3847 168.396 80.887C169.072 80.8559 168.964 80.688 168.807 80.2152Z" fill="black"/>
<path fill-rule="evenodd" clip-rule="evenodd" d="M192.028 118.366C193.221 122.067 194.408 125.755 194.445 129.876C194.472 132.935 194.22 135.83 193.971 138.678C193.864 139.908 193.758 141.128 193.675 142.349C194.123 144.305 194.427 146.315 194.445 148.436C194.461 150.333 194.377 152.169 194.253 153.97C194.33 154.331 194.413 154.693 194.505 155.058C195.745 159.985 196.837 164.776 195.341 169.771C195.049 170.753 194.584 171.696 194.117 172.639C194.228 173.239 194.356 173.845 194.505 174.457C195.745 179.548 196.837 184.499 195.341 189.66C195.045 190.687 194.573 191.673 194.101 192.66C193.532 193.847 192.963 195.036 192.7 196.296C192.514 197.195 192.621 198.555 192.735 199.989C192.875 201.749 193.023 203.618 192.647 204.883C192.587 205.089 192.535 205.32 192.48 205.56C192.31 206.316 192.118 207.165 191.59 207.648C188.783 210.164 163.186 205.048 155.761 203.548C149.559 202.291 143.768 202.012 137.786 201.724C134.694 201.575 131.552 201.423 128.276 201.133C127.546 201.069 127.119 200.205 127.012 199.569C126.061 193.422 127.708 187.077 129.37 180.963C129.007 180.934 128.642 180.905 128.276 180.873C127.546 180.812 127.119 179.975 127.012 179.36C126.031 173.22 127.816 166.878 129.53 160.786C130.294 158.071 131.044 155.406 131.528 152.831C131.986 150.385 132.214 147.923 132.44 145.472C132.877 140.741 133.31 136.055 135.386 131.623C136.233 129.814 137.305 128.136 138.377 126.459C139.513 124.681 140.65 122.903 141.517 120.97C143.595 116.333 143.832 111.604 144.077 106.728C144.115 105.964 144.154 105.196 144.2 104.423C144.538 98.7279 148.372 89.6737 153.31 85.4909C153.719 85.1463 157.991 85.6759 163.191 86.3208C167.732 86.8838 172.98 87.5346 176.979 87.7668C178.552 87.8575 179.755 87.1406 180.781 86.5286C182.259 85.6477 183.37 84.9852 184.694 87.2685C187.389 91.9013 188.867 102.791 189.659 108.63C189.715 109.04 189.767 109.425 189.816 109.781C190.229 112.779 191.13 115.576 192.028 118.366Z" fill="#40A360"/>
<path d="M159.427 48.8769C159.92 45.8303 159.937 42.7271 159.477 39.6753C159.401 39.19 158.846 39.053 158.435 39.0903C155.568 39.4698 153.851 40.2601 150.94 42.2012C150.72 42.3017 150.533 42.4623 150.403 42.6642C150.273 42.8663 150.205 43.1007 150.207 43.3396C150.775 50.341 151.342 57.3424 151.906 64.3439C151.994 65.4077 153.693 65.4201 153.605 64.3439C153.365 61.3617 153.123 58.3837 152.878 55.4096C153 55.4772 153.137 55.5127 153.276 55.5127C153.416 55.5127 153.553 55.4772 153.674 55.4096C153.941 55.2153 154.157 54.9617 154.306 54.6694C154.486 54.7619 154.694 54.7883 154.893 54.744C155.524 54.5696 155.651 54.2836 155.947 53.7175C155.947 53.7175 155.947 53.7175 155.947 53.6861C156.039 53.7087 156.134 53.7105 156.226 53.6919C156.319 53.6732 156.405 53.6343 156.48 53.5781C156.556 53.5221 156.617 53.4501 156.66 53.3677C156.704 53.2853 156.728 53.1941 156.73 53.1014C156.928 51.658 157.027 50.2029 157.027 48.7463C157.201 48.7028 157.356 48.6056 157.469 48.4691C157.583 48.3323 157.649 48.1636 157.658 47.9872C157.658 47.8006 157.659 47.6141 157.703 47.4273C157.703 47.9126 157.734 48.3978 157.734 48.8893C157.734 49.7915 159.244 50.0716 159.401 49.1135C159.401 49.0388 159.401 48.964 159.433 48.8893L159.427 48.8769Z" fill="#40A360"/>
<path d="M186.334 6.94978C185.318 5.31792 183.853 4.00306 182.11 3.15741C180.366 2.31179 178.415 1.96998 176.483 2.17159C173.818 2.40179 169.347 4.5607 167.642 6.00412C160.696 11.7529 161.327 21.0604 163.304 28.8809C163.752 30.6479 164.561 31.7425 166.588 32.4454C168.893 33.2481 171.194 32.2685 171.788 30.7378C172.584 28.6785 172.024 29.3913 172.485 27.2447C172.852 25.5586 173.193 23.6611 174.07 22.1305C175.1 20.3325 176.596 19.5672 178.08 18.3042C179.217 17.3274 179.343 17.9371 180.038 16.2449C181.472 12.6799 181.225 9.40109 186.025 8.57985C186.751 8.44297 186.814 7.35419 186.334 6.94978Z" fill="#301824"/>
<path d="M167.861 76.1962C168.783 75.9161 169.743 76.2272 170.646 76.4262C172.231 76.7996 175.173 76.8804 175.356 79.0267C175.451 80.3582 174.258 83.3572 172.925 83.8176C172.079 84.1098 170.974 83.83 169.856 83.3509C169.169 83.2543 168.493 83.096 167.836 82.8781C166.775 82.511 166.055 81.5964 164.969 81.2666C164.836 81.228 164.701 81.1989 164.564 81.1795L164.859 76.8439L166.168 76.9426C166.743 76.7187 167.229 76.3889 167.861 76.1962Z" fill="#D95F5F"/>
<path d="M170.057 17.0764C176.603 13.7052 183.923 10.2459 187.39 8.53821C190.856 6.83057 183.923 0 176.99 0C169.291 0 161.483 1.34565 159.658 8.53837C157.925 15.3688 160.016 19.3626 162.744 27.3224C162.199 24.5131 163.511 20.4477 170.057 17.0764Z" fill="black"/>
<path d="M182.19 32.4456C180.468 30.738 176.991 23.9073 182.19 10.2462C181.612 9.67693 169.711 10.2462 168.324 10.2462C166.591 10.2462 157.935 8.53859 159.658 18.7844C160.339 22.8276 164.868 29.0303 163.125 35.8607C160.814 36.9992 157.925 35.8607 156.192 39.2763C154.266 40.9837 157.852 46.7918 168.133 47.8144C176.969 48.6932 190.666 47.8144 192.399 42.6914C190.666 37.5686 180.468 39.2763 182.19 32.4456Z" fill="black"/>
<path d="M51.9123 39.6563C51.6031 38.6422 49.9296 38.9223 50.2392 39.955C56.4952 60.7243 57.9069 82.618 54.3689 104C54.192 105.058 55.8846 105.207 56.055 104.149C59.6171 82.6185 58.201 60.573 51.9123 39.6563Z" fill="#9E4D4D"/>
<path d="M70.6091 121.315C70.7763 120.387 70.6839 119.428 70.3413 118.532C70.0278 117.947 69.5781 117.522 69.2457 116.968C69.1945 115.942 69.127 114.918 69.0034 113.919C69.0112 113.005 68.8663 112.091 68.5744 111.212C67.9936 110.089 66.216 110.425 65.1779 110.756C65.0419 109.856 63.5662 109.965 63.7069 110.874L64.5042 116.066C64.51 116.206 64.504 116.345 64.4866 116.482C64.3391 117.601 63.5129 118.45 63.3239 119.554C63.217 120.237 63.1758 120.929 63.2005 121.622C62.9017 122.791 62.8098 123.928 63.2748 124.722C63.9939 125.961 67.3622 126.711 68.7303 126.401C70.9821 125.861 70.5269 122.945 70.6091 121.315Z" fill="#794343"/>
<path d="M54.1002 201.444C54.1002 202.028 54.1002 202.607 54.1002 203.186C53.9571 201.941 53.8035 200.697 53.6394 199.453C53.6355 199.367 53.6147 199.283 53.578 199.205C53.5412 199.127 53.4893 199.057 53.4249 198.999C53.3609 198.941 53.2858 198.896 53.2039 198.866C53.122 198.837 53.0351 198.824 52.9479 198.827C52.8607 198.831 52.7754 198.852 52.6964 198.888C52.6174 198.924 52.5462 198.975 52.4874 199.039C52.4283 199.102 52.3826 199.176 52.3527 199.257C52.3228 199.337 52.3094 199.423 52.3131 199.509C52.2816 200.28 52.2753 201.058 52.2564 201.829C52.2422 201.764 52.223 201.699 52.1997 201.636C52.1997 201.456 52.149 201.27 52.1301 201.089C52.1306 200.968 52.0975 200.849 52.0345 200.745C51.9712 200.641 51.8807 200.556 51.7722 200.499C51.6638 200.442 51.5415 200.415 51.4186 200.422C51.296 200.428 51.1773 200.467 51.0755 200.535C51.0755 200.112 51.0314 199.695 51.0062 199.291C50.9492 198.227 47.1731 190.388 47.2172 191.458C47.5141 196.952 50.0589 210.123 50.6144 215.648C50.8481 217.95 51.107 222.541 53.772 222.871C55.8558 223.126 56.2283 220.432 56.2979 218.516C56.5631 213.035 55.9065 207.217 55.4328 201.718C55.3633 200.566 54.1256 200.367 54.1002 201.444Z" fill="#794343"/>
<path d="M58.8522 219.206C58.4539 219.104 58.0932 218.893 57.8125 218.596C57.5319 218.3 57.3428 217.931 57.2672 217.532C57.1661 217.209 57.1598 215.915 56.9007 215.741C56.6418 215.566 56.7618 215.604 56.3137 215.591C54.798 215.554 52.2595 215.765 51.2997 215.846C50.8765 215.884 50.8009 215.946 50.7754 216.804C50.7754 216.848 50.883 219.878 51.0156 221.477C51.1734 223.343 51.4766 223.872 53.2005 224.096C57.3494 224.637 62.2116 224.843 66.4616 225.135C66.647 225.134 66.825 225.062 66.9578 224.934C67.0907 224.807 67.1686 224.634 67.1749 224.451C67.5286 221.763 67.3519 221.962 65.0723 221.234C63.8094 220.824 59.9509 219.529 58.8522 219.206Z" fill="#1C1C1C"/>
<path d="M16.3756 195.302C16.0725 195.8 15.7821 196.304 15.479 196.802C15.9778 195.638 16.4703 194.475 16.9565 193.299C17.0403 193.144 17.0581 192.963 17.006 192.794C16.9539 192.627 16.8361 192.486 16.6787 192.403C16.5213 192.321 16.3371 192.303 16.1665 192.355C15.996 192.406 15.8532 192.522 15.7694 192.677C15.3589 193.336 14.9673 194.009 14.5632 194.674C14.5852 194.611 14.6022 194.547 14.6138 194.481C14.6832 194.307 14.7527 194.139 14.8285 193.965C14.8856 193.86 14.9134 193.743 14.9093 193.624C14.9052 193.505 14.8691 193.39 14.8049 193.289C14.7407 193.189 14.6507 193.107 14.5439 193.052C14.4371 192.997 14.3175 192.97 14.197 192.976C14.3928 192.596 14.5822 192.217 14.7716 191.837C15.2515 190.885 15.8767 182.231 15.4031 183.189C12.9151 188.117 8.54526 200.846 6.28458 205.904C5.33734 208.02 3.27868 212.126 5.45729 213.731C7.14335 214.975 8.81045 212.798 9.87765 211.155C12.8393 206.508 15.1695 201.126 17.5123 196.08C17.9291 195.147 16.9503 194.388 16.3756 195.302Z" fill="#794343"/>
<path d="M11.6655 213.053C11.3697 212.77 11.161 212.411 11.0638 212.017C10.9666 211.623 10.9847 211.21 11.1161 210.825C11.1919 210.502 11.8298 209.363 11.6908 209.089C11.5519 208.816 11.6402 208.903 11.255 208.672C9.95415 207.907 7.63669 206.862 6.75894 206.47C6.37374 206.302 6.27271 206.314 5.82435 207.049C5.82435 207.098 4.39083 209.78 3.70253 211.236C2.90055 212.953 2.91328 213.55 4.29624 214.577C7.64307 217.065 11.7791 219.591 15.3533 221.918C15.5159 222.005 15.7064 222.028 15.8852 221.98C16.0639 221.933 16.2171 221.819 16.3132 221.663C17.9613 219.492 17.7151 219.573 16.0922 217.843C15.1703 216.873 12.4675 213.88 11.6655 213.053Z" fill="#1C1C1C"/>
<path d="M68.5051 24.9051C68.3547 22.7191 68.0719 20.5439 67.659 18.3911C67.7535 17.632 67.8419 16.8854 67.8989 16.1637C68.4736 9.31995 63.8889 0.827439 55.0481 3.33474C46.839 5.66164 42.8353 13.1836 43.6815 20.4566C43.41 27.0019 46.0876 32.2778 54.7641 33.7149C58.6919 34.337 61.5082 34.9031 63.6048 32.0599C64.5899 30.7287 65.0383 28.2647 65.6571 26.6472C66.9454 26.5539 68.5681 26.5042 68.5051 24.9051Z" fill="#794343"/>
<path d="M56.5271 26.7404C56.5271 26.4106 56.5271 26.1183 56.5271 25.7636C56.521 25.6034 56.4559 25.4508 56.3441 25.3344C56.3543 25.1962 56.3273 25.0578 56.2658 24.9333C56.2041 24.8087 56.1104 24.7025 55.9936 24.6253C55.8767 24.5482 55.7413 24.5029 55.6008 24.4942C55.4606 24.4854 55.3204 24.5134 55.1947 24.5753C55.3335 23.9532 55.4535 23.3745 55.5924 22.7835C55.8135 21.8689 54.2852 21.4272 53.976 22.3231C53.976 22.3915 53.9442 22.4662 53.919 22.5347C53.9161 22.5678 53.9161 22.6011 53.919 22.6342C53.8405 22.4997 53.7265 22.3887 53.589 22.313C53.4517 22.2373 53.296 22.1996 53.1387 22.2041C52.9812 22.2086 52.8279 22.255 52.6953 22.3384C52.5624 22.4218 52.4551 22.539 52.3844 22.6777C52.3844 22.5408 52.3847 22.404 52.4162 22.2671C52.4296 22.0573 52.3626 21.8502 52.2285 21.6867C52.0946 21.5232 51.9029 21.4151 51.6921 21.3838C51.481 21.3526 51.2658 21.4004 51.0888 21.5179C50.9119 21.6353 50.7861 21.8139 50.7362 22.0182V22.1675C50.5167 22.1364 50.293 22.1865 50.1087 22.3083C49.9244 22.4301 49.7926 22.615 49.7386 22.827C49.6819 23.051 49.6441 23.275 49.5934 23.499C49.3962 23.471 49.1951 23.5177 49.0313 23.6296C48.9215 23.5137 48.7819 23.4295 48.627 23.3861C48.4721 23.3427 48.3082 23.3417 48.1528 23.3834C47.9977 23.425 47.8569 23.5075 47.7456 23.6222C47.6346 23.7369 47.5574 23.8793 47.5222 24.034C46.8443 27.2733 46.1728 30.5128 45.5077 33.7522C45.1856 35.2826 43.9669 37.9456 44.5542 39.4885C44.7151 39.7628 44.9336 40.0002 45.1948 40.1846C45.4563 40.3691 45.7545 40.4968 46.0698 40.5588C46.0318 40.8386 45.9814 41.1187 45.9436 41.3985C45.9302 41.6083 45.9971 41.8153 46.131 41.9791C46.2652 42.1426 46.4566 42.2506 46.6674 42.2817C46.8785 42.3131 47.0937 42.2654 47.2707 42.1478C47.4476 42.0304 47.5734 41.8519 47.6233 41.6475C47.6548 41.4982 47.68 41.3487 47.7118 41.1933H47.7622C47.6989 41.6785 47.6419 42.1638 47.56 42.6491C47.5403 42.7843 47.555 42.9222 47.6031 43.0502C47.6509 43.1784 47.7304 43.2927 47.8346 43.3828C47.9386 43.473 48.0638 43.5362 48.199 43.5668C48.334 43.5971 48.4747 43.594 48.6083 43.5575C48.7112 43.7518 48.8858 43.8995 49.0964 43.9702C49.307 44.0409 49.5369 44.029 49.7386 43.937C49.8021 44.0529 49.8924 44.1526 50.0022 44.2275C50.1122 44.3024 50.2384 44.3508 50.3708 44.3684C50.5033 44.386 50.638 44.3723 50.764 44.3288C50.8901 44.2853 51.004 44.2127 51.0964 44.1174C51.1421 44.3044 51.2516 44.4705 51.4065 44.5876C51.5614 44.7045 51.7525 44.7656 51.9478 44.7607C52.1429 44.7555 52.3306 44.6845 52.479 44.5594C52.6276 44.4345 52.7278 44.263 52.7635 44.0738C52.7635 43.9122 52.814 43.744 52.8518 43.5823C52.9962 43.6852 53.1694 43.7404 53.3474 43.7404C53.5254 43.7404 53.699 43.6852 53.8434 43.5823L54.9295 43.993C55.0471 44.0428 55.1747 44.0656 55.3028 44.0601C55.431 44.0544 55.5559 44.0205 55.6688 43.9606C55.7817 43.901 55.8794 43.8168 55.9547 43.7147C56.0301 43.6127 56.081 43.495 56.1038 43.3709C56.3396 37.8857 57.0492 32.4303 58.2257 27.064C58.39 26.0437 56.8303 25.7823 56.5271 26.7404Z" fill="#794343"/>
<path d="M57.9791 207.54C56.7667 193.535 56.5837 179.611 56.6404 165.575C56.6785 155.764 53.8746 147.464 50.774 138.256C46.9853 126.977 43.2467 115.666 39.4073 104.411C36.4015 95.6569 30.3079 95.8062 21.4545 95.3769C21.7323 94.0205 22.086 92.6642 22.4396 91.3268C23.0332 89.2672 19.8569 88.0791 19.2822 90.1445C16.6426 99.3651 16.1248 108.853 18.4107 118.204C20.9682 128.656 28.6153 136.744 29.6385 147.446C30.0173 151.434 30.3331 154.706 32.941 157.935C34.4566 159.802 36.7299 161.102 38.1256 163.068C41.0807 167.199 40.0201 171.984 39.9631 176.482C39.9193 187.845 42.1109 199.108 46.4169 209.649C46.5384 209.917 46.7311 210.146 46.9748 210.314C47.2181 210.481 47.5035 210.581 47.7999 210.601C50.786 210.634 53.7619 210.253 56.6404 209.469C57.0673 209.369 57.4409 209.116 57.6885 208.76C57.936 208.403 58.0397 207.968 57.9791 207.54Z" fill="#F9B34A"/>
<path d="M14.9694 204.504C22.2125 192.397 30.245 180.937 38.5426 169.52C44.3331 161.55 46.9286 153.182 49.8144 143.906C53.3506 132.539 56.9566 121.197 60.4234 109.811C63.1134 100.958 58.0616 97.6104 51.0964 92.2039C52.1193 91.2582 53.1802 90.3374 54.2537 89.4664C55.9461 88.1225 54.0579 85.3414 52.3592 86.6915C44.7816 92.7078 38.7888 100.143 35.1579 109.089C31.1038 119.044 32.5813 130.025 27.1189 139.345C25.0857 142.811 23.4186 145.66 23.6459 149.779C23.7785 152.174 24.8646 154.52 24.852 156.921C24.852 161.986 21.1516 165.264 18.4678 168.91C11.7533 178.148 6.92166 188.582 4.24055 199.633C4.18282 199.919 4.20456 200.217 4.30346 200.492C4.40233 200.768 4.57463 201.013 4.80249 201.2C7.22185 202.928 9.87444 204.315 12.6834 205.319C13.0975 205.5 13.5667 205.516 13.9927 205.364C14.4188 205.213 14.7687 204.904 14.9694 204.504Z" fill="#F9B34A"/>
<path d="M70.2543 56.8218C70.7784 50.3886 67.52 46.6932 62.6767 42.5122C61.3537 41.3808 59.9525 40.3413 58.4834 39.4013C57.7073 39.7879 56.8808 40.0661 56.0271 40.2289C54.8992 40.4185 53.7537 40.4872 52.6106 40.434C51.4171 40.434 50.2554 40.1356 49.0745 40.011C47.8566 39.8931 46.6861 39.4832 45.6659 38.8173C44.6457 38.1515 43.8061 37.2498 43.2206 36.1909C35.5041 39.028 28.0653 41.2491 21.8009 46.7678C15.5366 52.2862 11.0656 59.2544 7.31462 66.4903C5.28758 70.4036 2.97647 74.5099 1.58089 78.6785C0.861003 80.8434 0.949374 82.9962 2.64806 84.7259C4.4541 86.5924 7.3021 87.2145 9.79644 87.65C12.3052 88.0588 14.835 88.3309 17.3742 88.4651C17.0458 91.0345 16.7426 93.6042 16.49 96.1798C16.1427 99.7884 14.8608 104.741 15.6754 108.306C15.7349 108.843 15.9543 109.351 16.306 109.767C16.6576 110.182 17.1259 110.485 17.652 110.639C20.9925 112.113 26.0823 112.095 29.7069 112.555C37.7532 113.634 45.8815 113.996 53.9937 113.638C56.2985 113.519 60.6937 113.974 62.5441 112.325C64.0721 110.968 63.8069 107.889 64.0025 106.103C66.0802 89.7528 68.9093 73.2842 70.2543 56.8218Z" fill="#40A360"/>
<path d="M67.6512 8.98404C67.8282 6.30253 65.5234 -0.970549 62.1321 1.93495C60.8312 0.783947 59.3285 -0.161739 57.472 0.0684609C55.786 0.26133 55.047 1.31278 53.405 1.31278C50.1404 1.31278 45.6066 0.429338 45.657 4.48583C41.8302 4.3303 38.8559 7.36021 39.8916 11.398C41.4322 17.4081 41.4829 20.7802 44.3117 26.5477C44.4887 26.9024 45.9917 29.6586 46.2884 29.7332C46.7116 29.8638 48.5935 27.2881 49.4459 25.9567C50.3614 24.4821 51.012 22.3356 52.7421 21.3464C54.0493 20.606 55.3754 21.4646 56.493 20.8362C57.3332 20.4139 57.974 19.6867 58.2801 18.808C60.1053 14.6333 61.1282 10.5954 67.2283 10.9127C68.0618 10.9127 67.6323 9.18313 67.6512 8.98404Z" fill="#C4C4C4"/>
<path d="M70.4572 84.9362C69.6068 93.3816 69.0852 102.182 71.7762 110.383C72.2115 111.707 73.3078 114.494 72.248 114.822C70.082 115.493 64.6942 116.225 62.6044 116.503C62.4185 116.51 62.2352 116.459 62.0803 116.358C61.9254 116.257 61.8065 116.11 61.7403 115.939C52.3685 96.6039 49.5068 67.7647 67.3794 51.9232C67.4942 51.8195 67.6349 51.7488 67.7872 51.7179C67.9394 51.6871 68.0975 51.6977 68.2442 51.7485L69.5351 51.9232C73.0017 63.1827 71.8208 71.3138 70.4572 84.9362Z" fill="#40A360"/>
<path fill-rule="evenodd" clip-rule="evenodd" d="M27.2794 90.4187L27.3023 90.4185C30.532 90.4185 32.5428 92.4837 33.6528 94.2318C34.217 95.1202 34.598 95.9959 34.838 96.6426C34.9587 96.9683 35.0461 97.2427 35.1044 97.4401C35.1336 97.5391 35.1556 97.6191 35.1711 97.6774C35.1787 97.7064 35.1848 97.73 35.1892 97.7479L35.1947 97.7702L35.1966 97.7779L35.1976 97.7823C35.1976 97.7823 35.1982 97.7836 33.6612 98.1396L35.1976 97.7823C35.3974 98.6187 34.8713 99.4571 34.0225 99.6537C33.1753 99.8499 32.3268 99.3335 32.1254 98.4995M27.3136 93.5294C26.6449 93.5408 25.99 93.7198 25.411 94.0499C24.8288 94.3818 24.3426 94.8554 23.999 95.4251C23.987 95.4448 23.9746 95.4645 23.9616 95.4839C23.1414 96.7154 22.7126 98.1601 22.7302 99.633L22.7303 99.6514V223.853C22.7303 224.713 22.0235 225.409 21.1516 225.409C20.2797 225.409 19.5729 224.713 19.5729 223.853V99.6602C19.55 97.5831 20.1521 95.5459 21.3031 93.8056C21.9213 92.792 22.7907 91.9497 23.8298 91.3574C24.8794 90.7589 26.0672 90.4358 27.2794 90.4187" fill="#442232"/>
<path d="M28.8031 95.5644C30.1544 95.4459 31.1712 93.3805 31.6701 92.3726C33.3876 88.9384 24.6479 86.9724 23.9154 87.0346L23.7008 86.9662C21.92 86.3998 20.5434 86.1573 18.9015 85.1681C18.7957 85.0992 18.6755 85.0543 18.5498 85.037C18.4242 85.0196 18.2962 85.03 18.1752 85.0675C18.0542 85.1051 17.9432 85.1689 17.8504 85.2541C17.7575 85.3391 17.6852 85.4438 17.6386 85.5601C17.3165 86.8789 16.6218 87.3393 17.569 88.4406C18.5162 89.5418 20.4613 89.9027 21.9137 90.4937C21.9579 90.8235 21.8252 92.1923 22.0147 92.4472C22.5514 93.1877 27.7422 95.6576 28.8031 95.5644Z" fill="#794343"/>
<path d="M12.4563 92.0611C13.7194 92.8456 15.1756 93.2757 16.6682 93.3055C17.1432 93.355 17.6231 93.3275 18.0891 93.2247C20.0277 92.7207 21.2907 89.8213 22.0864 88.21C23.1094 86.1134 23.5262 84.9436 21.9412 83.1642C21.0445 82.1625 20.0973 81.192 19.1122 80.2401C19.1161 80.1248 19.0888 80.0105 19.0334 79.9087C18.9779 79.8071 18.8962 79.7219 18.7964 79.6615C18.5501 79.512 18.2913 79.369 18.0324 79.2322C15.4054 76.7434 12.6332 74.3978 10.1136 71.903C9.34948 71.1504 8.02332 72.1893 8.79371 72.9544C10.3682 74.51 11.9553 76.0571 13.5551 77.5958C9.94303 76.7934 5.97737 77.067 3.15465 79.313C-1.1773 82.7473 7.34772 89.1557 10.1389 90.7545L11.0481 91.2584C11.4641 91.5919 11.9253 91.8663 12.4184 92.0735L12.4563 92.0611ZM4.78376 81.7208C5.58574 77.6828 11.9385 78.6101 15.8032 80.0784C13.8393 80.209 11.4396 79.8232 9.9241 79.7548C9.75996 79.7499 9.59756 79.7893 9.45466 79.8691C9.31176 79.9486 9.1939 80.0654 9.11377 80.2067C9.03365 80.3479 8.99437 80.508 9.00031 80.6696C9.00624 80.8313 9.05712 80.9883 9.14738 81.1236H9.06521C8.85244 81.1174 8.64512 81.1899 8.48384 81.3267C8.32256 81.4635 8.21901 81.655 8.1937 81.8633C8.16837 82.0713 8.22306 82.2815 8.34695 82.4519C8.47082 82.6224 8.65504 82.7411 8.86326 82.7846C9.65891 82.9217 10.4483 83.0336 11.2439 83.1269C9.981 83.1269 8.71802 83.1891 7.45508 83.3134C7.00041 83.3134 6.54564 83.3448 6.08464 83.3758C5.94287 83.3815 5.80725 83.4341 5.69953 83.5251H5.49109C5.30398 83.545 5.12976 83.6287 4.99852 83.7614C4.73133 83.1087 4.65685 82.3949 4.78376 81.7021V81.7208Z" fill="#40A360"/>
<path d="M111.658 35.284C111.848 34.9443 111.262 34.5427 110.76 34.4518C106.062 33.6388 101.604 34.4518 97.8338 37.3212C92.5688 41.3768 93.2708 48.4069 88.5926 52.8833C86.6721 54.7246 84.4259 56.3173 82.8614 58.4739C81.1165 60.8653 80.8558 63.7013 80.1339 66.4848C79.2011 70.148 76.1826 72.2905 74.5079 75.5713C73.2351 78.1172 72.6573 80.9286 72.8282 83.7446C72.8295 83.9141 72.9006 84.0765 73.0264 84.1962C73.1521 84.3162 73.3223 84.384 73.5 84.3853C78.1078 84.2631 82.7186 84.4887 87.2891 85.0598C89.6556 85.3515 92.0676 85.7531 94.3089 84.6867C96.6655 83.5581 98.3202 81.248 99.8243 79.2491C101.97 76.3204 103.817 73.2022 105.34 69.9377C108.273 63.8016 110.575 57.3166 112.676 50.8795C114.32 45.7671 115.95 39.5212 111.658 35.284Z" fill="black"/>
<path d="M106.137 34.6249C106.783 34.2923 107.463 34.0275 108.165 33.835C108.45 34.3174 108.796 34.7628 109.194 35.1602C110.495 36.4145 112.236 37.1275 114.056 37.1511H115.319C115.913 37.143 116.504 37.0573 117.075 36.8959C118.667 38.8398 119.687 41.1768 120.024 43.6527C120.112 44.3121 120.2 46.048 120.257 46.7633C120.99 48.6298 121.748 49.4511 122.24 51.3549C122.607 52.7673 121.173 53.1157 120.036 53.4393C119.796 54.9947 119.866 57.278 119.247 58.6406C117.915 61.5647 115.3 61.602 111.669 61.7512C103.669 62.1184 100.265 57.8877 99.2479 52.0081C97.1515 45.6809 99.2608 38.2335 106.137 34.6249Z" fill="#D95F5F"/>
<path d="M102.974 54.1238C102.816 57.1287 101.572 72.3964 102.311 73.7092C102.595 74.2069 113.298 76.1605 113.242 75.6503C112.699 70.6732 112.711 60.4199 113.033 55.4052C113.084 54.4222 103.012 53.3771 102.974 54.1238Z" fill="#D95F5F"/>
<path d="M115.429 171.194C120.802 178.093 125.93 185.105 127.856 193.648C129.694 201.804 131.563 210.191 132.845 218.447C132.914 218.901 131.582 219.262 132.03 219.343L136.091 220.127C136.785 220.257 137.189 219.56 137.158 218.994C136.406 205.854 136.596 192.241 134.455 179.226C132.561 167.647 127.364 156.946 122.267 146.463C121.718 145.337 119.925 146.146 120.474 147.278C121.024 148.41 121.573 149.536 122.116 150.669C117.184 151.59 111.166 154.588 109.253 159.566C107.56 163.989 113.035 168.12 115.429 171.194Z" fill="#D95F5F"/>
<path d="M138.73 219.697C138.387 219.605 138.077 219.42 137.836 219.163C137.594 218.905 137.431 218.586 137.366 218.242C137.284 217.962 137.277 216.842 137.056 216.692C136.835 216.543 136.943 216.568 136.551 216.556C135.238 216.518 133.04 216.686 132.213 216.755C131.847 216.755 131.777 216.835 131.752 217.576C131.752 217.619 131.834 220.239 131.935 221.626C132.061 223.256 132.326 223.698 133.829 223.903C137.416 224.395 141.628 224.594 145.322 224.874C145.49 224.874 145.651 224.808 145.769 224.692C145.887 224.575 145.954 224.417 145.954 224.252C146.276 221.925 146.118 222.086 144.154 221.452C143.005 221.141 139.683 219.984 138.73 219.697Z" fill="#F9B34A"/>
<path d="M89.4855 165.034C89.2518 173.745 88.7467 182.362 84.7811 190.188C80.9923 197.654 77.0834 205.338 72.783 212.549C72.5493 212.941 71.3054 212.412 71.5832 212.742L74.2354 215.852C74.3446 215.956 74.4761 216.032 74.62 216.078C74.7639 216.124 74.9161 216.137 75.0658 216.116C75.2154 216.095 75.3582 216.041 75.4835 215.957C75.6087 215.874 75.7132 215.764 75.7888 215.635C83.6001 204.958 92.4598 194.481 99.1094 183.071C105.033 172.898 107.843 161.37 110.583 150.059C110.874 148.846 108.967 148.36 108.689 149.58C108.411 150.799 108.095 152.012 107.792 153.232C103.372 150.886 96.7794 149.499 92.1127 152.162C87.9764 154.57 89.5929 161.165 89.4855 165.034Z" fill="#D95F5F"/>
<path d="M76.5794 217.172C76.3675 216.889 76.2431 216.552 76.2205 216.201C76.1982 215.85 76.2791 215.5 76.4531 215.193C76.5605 214.926 77.2804 214.055 77.2045 213.8C77.1286 213.544 77.2045 213.632 76.8952 213.383C75.9036 212.536 74.085 211.305 73.3966 210.844C73.0937 210.639 73.0052 210.639 72.5127 211.193C72.5127 211.236 70.877 213.314 70.0687 214.453C69.128 215.797 69.0458 216.319 70.0687 217.383C72.5442 219.99 75.6828 222.759 78.3791 225.272C78.5057 225.367 78.6634 225.411 78.8215 225.396C78.9795 225.381 79.1258 225.308 79.2316 225.191C80.968 223.586 80.7472 223.617 79.623 221.906C78.9853 220.936 77.1415 217.987 76.5794 217.172Z" fill="#F9B34A"/>
<path d="M83.0798 180.145C85.2035 181.582 88.5238 182.291 95.1564 182.425C99.2263 182.827 100.04 182.334 104.125 182.605C112.588 183.171 125.114 179.432 136.381 176.481C141.909 176.395 133.435 149.412 128.471 136.611C125.161 128.077 121.905 120.912 117.08 108.543C117.082 108.432 117.141 108.353 117.175 108.218C118.076 104.916 120.896 100.56 120.701 97.113C120.288 89.7564 120.704 84.3968 118.469 77.3244C116.908 72.3571 110.918 68.3492 110.735 68.3086C103.34 66.796 98.1814 67.4388 94.4864 72.2447C94.0437 72.8313 93.6565 73.4552 93.3296 74.1094C91.2537 77.1032 90.7486 80.9304 90.4575 84.5404C90.1059 88.9384 89.9757 93.3782 89.9413 97.789C89.9206 100.923 89.4301 104.658 90.0707 107.774C85.0528 117.537 82.1751 128.207 81.6196 139.107C81.4263 142.602 79.4657 177.678 83.0798 180.145Z" fill="#F9B34A"/>
<path d="M117.866 37.5684C117.009 36.324 115.869 34.798 114.399 34.1531C112.929 33.5082 109.095 32.2918 107.466 32.4454C102.266 32.9361 100.532 34.1531 97.0656 37.5684C91.8657 44.3991 91.9324 52.0959 93.599 58.0602C93.9771 59.4077 98.823 60.9392 100.532 61.4755C102.476 62.0875 104.139 55.9478 104.64 54.7806C105.311 53.21 105.54 51.5399 105.928 49.9027C106.237 48.6168 107.466 47.8142 107.466 47.8142C108.956 46.4995 109.681 47.0698 110.932 46.1068C111.891 45.3616 112.413 44.9665 112.665 44.3991C113.874 41.6802 113.298 39.7098 117.344 39.0833C117.957 38.9789 118.27 37.8767 117.866 37.5684Z" fill="black"/>
<path d="M92.6823 188.509C94.4156 188.509 101.381 174.668 102.467 170.765C103.553 166.861 104.2 163.934 104.2 163.934L105.934 160.519V163.934C105.934 168.032 105.06 171.737 104.623 173.077C103.268 175.169 102.09 177.362 101.1 179.633C100.047 182.033 98.6025 184.26 96.8207 186.23C94.9543 188.299 92.5072 190.224 91.3541 192.682C90.7841 193.914 90.4155 195.212 89.9886 196.476C89.6547 197.458 86.4732 206.607 84.5856 212.25C84.2784 212.541 83.9358 212.796 83.5648 213.009C82.8622 213.403 81.9901 213.56 81.4968 214.273C81.0037 214.987 80.8155 215.968 80.7015 216.803C80.638 217.261 80.5107 217.974 81.1841 218.02C81.6133 218.002 82.0381 217.928 82.4461 217.799C83.0137 217.678 83.5693 217.508 84.1056 217.294C84.9127 216.982 85.6221 216.478 86.1655 215.829C86.5872 215.295 87.4622 213.191 87.5205 212.814C87.5192 212.804 87.5192 212.794 87.5205 212.784C87.82 211.969 92.2315 199.76 92.6823 198.917C93.2945 197.766 93.9574 196.598 94.9118 195.611C96.6377 193.828 99.1405 193.062 101.381 192.09C103.839 191.032 106.229 189.836 108.539 188.509C111.174 186.983 116.795 182.944 120.634 179.825C121.014 181.709 121.52 183.568 122.15 185.39C122.991 187.798 123.385 190.327 123.314 192.864C123.237 195.477 122.574 198.277 123.369 200.835C123.772 202.114 124.409 203.336 124.96 204.563C125.535 205.84 132.349 221.303 133.648 223.832C134.011 224.522 134.582 225.279 135.337 225.557C135.546 225.683 135.77 225.787 136.003 225.866C136.472 225.998 136.958 226.065 137.447 226.066C138.023 226.096 138.582 226.185 139.152 226.253C139.555 226.298 140.417 226.425 140.515 225.901C140.634 225.269 140.268 224.277 139.913 223.751C139.46 223.091 138.728 222.886 138.057 222.504C137.206 222.024 136.633 221.234 136.145 220.438C135.772 219.825 135.419 219.201 135.069 218.576C132.895 213.945 129.229 206.007 129.003 205.122C128.685 203.88 128.402 202.608 128.492 201.328C128.662 199.013 130.223 197.109 131.408 195.179C132.713 193.073 133.865 190.884 134.855 188.628C136.144 185.719 137.049 182.669 137.545 179.547C137.84 179.646 138.134 179.752 138.423 179.868C141.231 181.019 143.179 183.379 145.751 184.884C148.611 186.556 152.01 186.419 155.117 187.381C157.278 188.048 159.214 189.202 161.287 190.019C161.101 190.403 160.923 190.79 160.756 191.18C160.003 192.938 160.126 194.721 160.351 196.57C160.863 200.66 157.358 216.12 156.621 219.884C156.292 221.525 156.04 223.296 156.292 224.96C156.467 226.152 157.074 227.469 158.413 227.781C159.338 227.998 160.555 227.715 160.892 226.769C161.403 225.334 159.662 224.087 159.351 222.782C158.893 220.845 160.036 218.869 160.847 217.165C161.581 215.632 165.229 205.85 166.353 202.514C167.732 198.399 169.187 194.276 171.109 190.373C172.18 190.117 173.235 189.804 174.264 189.457C177.082 188.511 179.805 187.403 182.65 186.584L183.885 188.557C184.978 190.297 185.953 192.267 187.38 193.785C188.719 195.209 190.63 195.707 192.446 196.347C194.973 197.238 201.388 201.401 201.64 203.245C202.078 206.45 199.299 209.978 198.313 211.086C197.427 212.08 196.126 212.692 195.331 213.75C194.79 214.46 194.591 215.556 195.201 216.294C195.874 217.122 197.12 216.767 197.995 216.466C199.12 216.067 200.158 215.473 201.057 214.714C203.13 213.004 204.567 210.679 205.781 208.37C206.423 207.148 207.049 205.868 207.189 204.492C207.289 203.173 206.985 201.855 206.314 200.698C205.063 198.391 194.19 188.782 190.89 182.19C191.104 181.892 191.309 181.586 191.502 181.275C193.228 178.49 194.448 175.35 195.638 172.33C196.223 170.828 196.781 169.31 197.311 167.777C197.624 167.292 197.953 166.816 198.305 166.356C199.607 164.649 201.198 163.396 203.006 162.208C203.782 161.727 204.506 161.174 205.166 160.556C205.845 159.852 206.374 159.029 206.723 158.133C207.013 157.376 207.353 156.638 207.741 155.922C208.909 155.681 210.06 155.37 211.187 154.991C212.713 154.499 214.322 154.285 215.93 154.359C218.279 154.488 220.535 154.779 222.717 153.729C222.844 153.668 222.993 153.59 223.096 153.534C223.198 153.48 223.297 153.422 223.397 153.365L223.401 153.362C224.861 152.497 226.011 151.228 226.699 149.725L226.7 149.722C226.737 149.64 226.774 149.557 226.808 149.472C227.126 148.705 227.365 147.825 227.203 147.021C227.031 146.168 226.352 145.632 225.543 145.314C225.323 145.228 225.1 145.147 224.873 145.073C223.134 144.504 221.232 144.271 219.469 143.809C217.385 143.262 215.384 143.151 214.265 141.34C213.502 140.108 211.991 137.566 209.758 136.883C206.81 135.983 200.522 136.081 197.43 137.725C195.426 138.79 192.348 141.229 190.834 142.893C190.036 143.768 189.36 144.742 188.541 145.602C187.584 146.597 186.383 147.349 185.047 147.792C183.795 148.232 182.491 148.529 181.247 148.992C180.945 149.105 180.646 149.227 180.351 149.358L179.88 149.416C175.653 149.978 171.467 150.995 167.17 151.06C162.792 151.126 128.526 147.507 124.438 147.76L123.452 147.823C118.836 147.061 116.334 146.857 111.134 146.857C105.934 147.76 103.48 150.949 101.381 155.166C99.6737 158.594 97.3106 168.815 96.8207 170.765C95.5337 175.888 90.949 188.509 92.6823 188.509Z" fill="#1C1C1C"/>
<path d="M161.393 149.3C159.752 149.3 141.236 146.289 141.236 149.3C141.236 149.3 140.4 153.688 140.4 155.396C140.4 157.103 141.236 156.77 142.134 157.103C143.032 157.437 155.685 158.811 155.685 158.811C155.12 165.642 155.12 172.303 155.12 178.338C155.075 180.425 155.265 182.511 155.685 184.56C155.993 186.031 156.536 187.447 157.294 188.762C157.416 189.009 157.602 189.223 157.833 189.384C158.065 189.545 158.335 189.649 158.619 189.685C159.481 189.785 160.32 190.018 161.103 190.375C161.129 190.387 161.158 190.391 161.186 190.387C161.214 190.382 161.24 190.37 161.26 190.35C161.28 190.331 161.293 190.306 161.297 190.279C161.302 190.252 161.297 190.225 161.284 190.201C159.601 186.522 158.866 182.513 159.139 178.507L161.393 162.226C161.393 162.226 171.968 170.367 179.901 173.178C181.918 173.892 183.036 174.409 185.15 174.754C186.744 175.013 189.28 175.017 189.28 175.017C189.424 175.02 189.567 175.006 189.707 174.976C190.831 174.748 191.955 174.493 193.061 174.19C194.06 173.952 195.028 173.613 195.951 173.178C196.804 172.73 197.098 172.042 197.411 171.2C197.788 170.188 198.294 169.083 198.443 168.015C198.525 167.471 198.371 167.074 197.73 167.132C197.563 167.147 196.779 167.921 194.324 169.057L190.858 170.765C189.325 171.2 185.636 170.47 183.925 169.057L180.558 166.776L171.833 160.374C171.934 160.047 172.032 159.719 172.138 159.392C172.681 157.588 173.408 155.838 174.309 154.169C174.778 153.329 175.331 152.534 175.961 151.796C176.505 151.24 177.101 150.731 177.742 150.279L178.479 150.061C178.74 150.019 178.993 149.943 179.232 149.836C179.521 149.601 179.232 149.267 178.967 149.143C178.635 149.028 178.28 148.982 177.928 149.009L176.215 148.966C173.845 148.905 170.197 149.361 167.827 149.3C163.087 149.178 163.737 149.3 161.393 149.3Z" fill="#F9B34A"/>
<path d="M141.181 110.53L133.416 116.283L136.302 120.134L144.067 114.38L141.181 110.53Z" fill="#C4C4C4"/>
<path d="M178.681 149.748L142.043 111.984L139.891 113.723L175.214 149.748H178.681Z" fill="black"/>
<path d="M172.182 153.558L133.415 116.283L131.262 118.022L170.017 154.871L172.182 153.558Z" fill="black"/>
<path d="M141.526 113.555C141.223 113.285 140.92 112.992 140.584 112.737C140.214 112.456 139.803 112.222 139.308 112.118C138.652 111.995 138.01 112.049 137.365 111.971C137.01 111.717 136.639 111.482 136.288 111.202C127.016 104.385 124.373 100.773 118.087 91.3236C114.626 86.1164 115.999 86.0864 111.437 80.1431C110.507 79.4171 109.563 78.987 108.618 78.9049C108.497 78.8942 108.37 78.9049 108.246 78.9362C108.122 78.9676 108.003 79.0191 107.895 79.0875C107.788 79.1559 107.694 79.2399 107.619 79.335C107.545 79.43 107.49 79.5339 107.46 79.641C104.843 88.9402 108.011 94.3423 109.92 96.9749C112.721 100.838 125.378 110.677 129.389 112.536C130.648 113.257 131.913 113.978 133.186 114.697C133.288 114.773 133.383 114.856 133.471 114.944C134.174 115.703 134.175 116.773 134.826 117.554C135.241 118.026 135.712 118.456 136.234 118.841C136.864 119.734 137.62 120.46 138.534 120.603C139.97 120.821 143.015 118.906 143.8 117.765C145.068 115.956 142.648 114.56 141.526 113.555Z" fill="#D95F5F"/>
</svg>
